<svg id="Layer_1" data-name="Layer 1" xmlns="http://www.w3.org/2000/svg" viewBox="0 0 536.66 110.95">
  <defs>
    <style>
      .cls-1 {
        fill: #1d1d1b;
      }

      .cls-2 {
        fill: #b8870f;
      }

      .cls-3 {
        fill: #b8870e;
      }
    </style>
  </defs>
  <title>logo</title>
  <g>
    <g>
      <path class="cls-1" d="M228.09,325.51h2.85l12.28,27.15h-3.27l-3.16-7.12H222.12l-3.2,7.12H215.8Zm7.51,17.29L229.47,329l-6.16,13.75h12.28Z" transform="translate(-152.61 -242.17)"/>
      <path class="cls-1" d="M262,325.7h9.36a16,16,0,0,1,5.8,1,13.71,13.71,0,0,1,4.54,2.83,12.62,12.62,0,0,1,2.95,4.25,13.4,13.4,0,0,1,1,5.29v0.08a13.54,13.54,0,0,1-1,5.31,12.55,12.55,0,0,1-2.95,4.27,13.92,13.92,0,0,1-4.54,2.85,15.66,15.66,0,0,1-5.8,1H262v-27Zm9.36,24.14A12.66,12.66,0,0,0,276,349a10.21,10.21,0,0,0,3.52-2.23,9.92,9.92,0,0,0,2.23-3.37,11,11,0,0,0,.79-4.18v-0.08a11,11,0,0,0-.79-4.18,10.14,10.14,0,0,0-2.23-3.39,10.31,10.31,0,0,0-3.52-2.27,12.4,12.4,0,0,0-4.62-.83h-6.31v21.33h6.31Z" transform="translate(-152.61 -242.17)"/>
      <path class="cls-1" d="M303.29,325.7h3.39l9.59,23.22,9.63-23.22h3.27l-11.59,27.15h-2.69Z" transform="translate(-152.61 -242.17)"/>
      <path class="cls-1" d="M360.47,353.11a13.69,13.69,0,0,1-5.6-1.12,13.27,13.27,0,0,1-7.12-7.45,14.47,14.47,0,0,1-1-5.29v-0.08a14.37,14.37,0,0,1,1-5.31,14,14,0,0,1,18.39-7.51,13.26,13.26,0,0,1,7.12,7.45,14.47,14.47,0,0,1,1,5.29,0,0,0,0,1,0,.08,14.38,14.38,0,0,1-1,5.31A13.49,13.49,0,0,1,360.47,353.11Zm0.08-2.81a10.35,10.35,0,0,0,4.25-.87,10,10,0,0,0,3.33-2.37,11.11,11.11,0,0,0,2.18-3.5,11.65,11.65,0,0,0,.79-4.31v-0.08a11.8,11.8,0,0,0-.79-4.33,10.61,10.61,0,0,0-5.58-5.91,10.15,10.15,0,0,0-4.25-.89,10.35,10.35,0,0,0-4.25.87,10,10,0,0,0-3.33,2.37,11.16,11.16,0,0,0-2.17,3.5,11.66,11.66,0,0,0-.79,4.31v0.08a11.81,11.81,0,0,0,.79,4.33,10.61,10.61,0,0,0,5.58,5.91A10.13,10.13,0,0,0,360.55,350.3Z" transform="translate(-152.61 -242.17)"/>
      <path class="cls-1" d="M406.49,353.11a13.25,13.25,0,0,1-9.66-4,13.44,13.44,0,0,1-2.83-4.41,14.44,14.44,0,0,1-1-5.43v-0.08a14.34,14.34,0,0,1,1-5.39,13.9,13.9,0,0,1,2.83-4.45,13.16,13.16,0,0,1,4.31-3,13.46,13.46,0,0,1,5.47-1.1,16.44,16.44,0,0,1,3.33.31,13.87,13.87,0,0,1,2.75.87,12.45,12.45,0,0,1,2.35,1.35,20.55,20.55,0,0,1,2.08,1.75L415,331.74a17,17,0,0,0-3.72-2.66,10.4,10.4,0,0,0-12.21,2.16,10.9,10.9,0,0,0-2.2,3.52,11.81,11.81,0,0,0-.79,4.33v0.08a11.91,11.91,0,0,0,.79,4.37,10.88,10.88,0,0,0,2.2,3.52,10.35,10.35,0,0,0,3.31,2.37,9.89,9.89,0,0,0,4.14.87,10.39,10.39,0,0,0,4.77-1,16.61,16.61,0,0,0,3.93-2.87l2,2a19.18,19.18,0,0,1-2.18,1.94,13.54,13.54,0,0,1-2.45,1.48,13.92,13.92,0,0,1-2.81,1A15,15,0,0,1,406.49,353.11Z" transform="translate(-152.61 -242.17)"/>
      <path class="cls-1" d="M446,325.51h2.85l12.28,27.15h-3.27l-3.16-7.12H440.07l-3.2,7.12h-3.12Zm7.51,17.29L447.42,329l-6.16,13.75h12.28Z" transform="translate(-152.61 -242.17)"/>
      <path class="cls-1" d="M487.08,328.51h-9V325.7h21.14v2.81h-9v24.14h-3V328.51Z" transform="translate(-152.61 -242.17)"/>
      <path class="cls-1" d="M529.17,353.08a13.23,13.23,0,0,1-4.56-.75,9.58,9.58,0,0,1-3.54-2.23,10,10,0,0,1-2.29-3.68,14.54,14.54,0,0,1-.81-5V325.7h3v15.48q0,4.39,2.17,6.74a9,9,0,0,0,12,.12q2.2-2.23,2.2-6.66V325.7h3v15.44a15.24,15.24,0,0,1-.81,5.2,10.14,10.14,0,0,1-2.29,3.74,9.48,9.48,0,0,1-3.54,2.25A13.35,13.35,0,0,1,529.17,353.08Z" transform="translate(-152.61 -242.17)"/>
      <path class="cls-1" d="M571.87,353.08a13.23,13.23,0,0,1-4.56-.75,9.58,9.58,0,0,1-3.54-2.23,10,10,0,0,1-2.29-3.68,14.54,14.54,0,0,1-.81-5V325.7h3v15.48q0,4.39,2.17,6.74a9,9,0,0,0,12,.12q2.2-2.23,2.2-6.66V325.7h3v15.44a15.24,15.24,0,0,1-.81,5.2,10.14,10.14,0,0,1-2.29,3.74,9.48,9.48,0,0,1-3.54,2.25A13.35,13.35,0,0,1,571.87,353.08Z" transform="translate(-152.61 -242.17)"/>
      <path class="cls-1" d="M603.79,325.7h11.59a12.89,12.89,0,0,1,4.45.71,8.71,8.71,0,0,1,3.22,2,6.94,6.94,0,0,1,1.54,2.35,7.93,7.93,0,0,1,.54,3v0.08a8,8,0,0,1-.54,3,6.9,6.9,0,0,1-1.52,2.31,8.22,8.22,0,0,1-2.33,1.62,11.26,11.26,0,0,1-2.93.9l8.28,11h-3.73l-7.82-10.47h-7.7v10.47h-3v-27Zm11.34,13.75a9.59,9.59,0,0,0,2.78-.38,6.77,6.77,0,0,0,2.2-1.1,4.92,4.92,0,0,0,2-4.06v-0.08a4.67,4.67,0,0,0-1.81-3.91,8.16,8.16,0,0,0-5.1-1.41h-8.34v10.94h8.3Z" transform="translate(-152.61 -242.17)"/>
    </g>
    <g>
      <rect class="cls-2" x="491.63" y="95.73" width="45.03" height="2.37"/>
      <rect class="cls-2" y="95.73" width="45.03" height="2.37"/>
    </g>
    <g>
      <path class="cls-3" d="M257.47,274.83a17,17,0,0,0,1.61,7.26l6.63-16.17,16.17-6.63a17.15,17.15,0,0,0-24.41,15.54h0Zm0,0" transform="translate(-152.61 -242.17)"/>
      <path class="cls-3" d="M287.36,263.34l0.87-2.12-17.19,7,10.15,10.15Zm0,0" transform="translate(-152.61 -242.17)"/>
      <path class="cls-3" d="M291.78,274.83a17.06,17.06,0,0,0-1.61-7.26l-6.63,16.17-16.17,6.63a17.15,17.15,0,0,0,24.41-15.54h0Zm0,0" transform="translate(-152.61 -242.17)"/>
      <path class="cls-3" d="M261,288.43l1-.43,16.14-6.62-10.15-10.15Zm0,0" transform="translate(-152.61 -242.17)"/>
      <g>
        <path class="cls-1" d="M152.61,243.06h11v31.42l29.73-31.42H206.9l-26.07,26.87,27.23,35.62H194.67l-21.34-28.12-9.73,10v18.12h-11V243.06Z" transform="translate(-152.61 -242.17)"/>
        <path class="cls-1" d="M351,243.06h11.7l19,29.55,19-29.55h11.7v62.49h-11V260.73l-19.73,29.46h-0.36L361.8,260.91v44.63H351V243.06Z" transform="translate(-152.61 -242.17)"/>
        <path class="cls-1" d="M459.73,243.06h24.64c14.64,0,23.75,8.3,23.75,20.89v0.18c0,14-11.25,21.33-25,21.33H470.72v20.09h-11V243.06Zm23.75,32.49c8.3,0,13.48-4.64,13.48-11.16v-0.18c0-7.32-5.27-11.16-13.48-11.16H470.72v22.5h12.77Z" transform="translate(-152.61 -242.17)"/>
        <path class="cls-1" d="M566.51,242.61h10.18l27.5,62.93H592.59l-6.34-15.09H556.69l-6.43,15.09H539Zm15.72,38.12-10.8-25-10.71,25h21.52Z" transform="translate(-152.61 -242.17)"/>
        <path class="cls-1" d="M640.88,296.44l6.61-7.86c6,5.18,12.05,8.12,19.73,8.12,6.79,0,11.07-3.21,11.07-7.86v-0.18c0-4.46-2.5-6.87-14.11-9.55-13.3-3.21-20.8-7.14-20.8-18.66v-0.18c0-10.71,8.93-18.12,21.34-18.12A34.65,34.65,0,0,1,687.4,250l-5.89,8.3c-5.62-4.2-11.25-6.43-17-6.43-6.43,0-10.18,3.3-10.18,7.41v0.18c0,4.82,2.86,7,14.91,9.82,13.21,3.21,20,7.95,20,18.3v0.18c0,11.69-9.2,18.66-22.32,18.66A38.51,38.51,0,0,1,640.88,296.44Z" transform="translate(-152.61 -242.17)"/>
        <path class="cls-1" d="M295.93,253.53l-3.75,9.15a21.23,21.23,0,0,1,3.7,10.05h10.54A31.91,31.91,0,0,0,276.73,243v10.54a21.23,21.23,0,0,1,10.05,3.7Zm0,0" transform="translate(-152.61 -242.17)"/>
        <path class="cls-1" d="M253.33,296.13l3.75-9.15a21.23,21.23,0,0,1-3.7-10.05H242.84a31.91,31.91,0,0,0,29.69,29.69V296.08a21.23,21.23,0,0,1-10.05-3.7Zm0,0" transform="translate(-152.61 -242.17)"/>
        <path class="cls-1" d="M276.73,296.08v10.54a31.91,31.91,0,0,0,29.69-29.69H295.88a21.4,21.4,0,0,1-19.15,19.15h0Zm0,0" transform="translate(-152.61 -242.17)"/>
        <path class="cls-1" d="M272.53,253.57V243a31.91,31.91,0,0,0-29.69,29.69h10.54a21.4,21.4,0,0,1,19.15-19.15h0Zm0,0" transform="translate(-152.61 -242.17)"/>
      </g>
    </g>
  </g>
</svg>
